<svg width="15" height="14" viewBox="0 0 15 14" fill="none" xmlns="http://www.w3.org/2000/svg">
<path d="M9.25849 4.22157L9.25844 4.22146L7.73687 0.649828C7.73687 0.649826 7.73687 0.649824 7.73686 0.649822C7.69605 0.554029 7.60911 0.5 7.50002 0.5C7.39092 0.5 7.30398 0.554031 7.26317 0.649827L5.74156 4.22147C5.55799 4.65235 5.14708 4.93923 4.68404 4.97547L0.734486 5.2846C0.490672 5.30368 0.435772 5.57134 0.585559 5.69661L3.59471 8.21309L3.59475 8.21313C3.95346 8.51317 4.11444 8.98899 4.00278 9.44589L3.08344 13.2086C3.05986 13.3051 3.09479 13.3905 3.17753 13.4492C3.26137 13.5086 3.36858 13.5202 3.46916 13.4603L9.25849 4.22157ZM9.25849 4.22157C9.44212 4.65234 9.85297 4.93923 10.316 4.97547L14.2655 5.2846C14.5093 5.30368 14.5642 5.57134 14.4144 5.69661L11.4053 8.2131L11.4053 8.21313C11.0467 8.51313 10.8856 8.98892 10.9972 9.4459L11.9166 13.2086C11.9402 13.3051 11.9052 13.3905 11.8225 13.4492C11.7387 13.5086 11.6314 13.5202 11.5308 13.4603L8.14951 11.4439C7.75023 11.2058 7.24983 11.2057 6.85054 11.4439C6.85053 11.4439 6.85053 11.4439 6.85052 11.4439L3.46919 13.4603L9.25849 4.22157Z" stroke="#29180F"/>
</svg>
