<svg width="15" height="14" viewBox="0 0 15 14" fill="none" xmlns="http://www.w3.org/2000/svg">
<path fill-rule="evenodd" clip-rule="evenodd" d="M14.9198 5.20949L14.9796 5.3937C15.0288 5.53274 14.9874 5.68726 14.8749 5.78422L11.2399 8.84209L12.3169 13.4252C12.3534 13.5717 12.2974 13.7255 12.1748 13.8157L12.0102 13.9262C11.9463 13.9756 11.8671 14.0016 11.7859 13.9999C11.7174 14.0013 11.6499 13.9834 11.5914 13.9483L7.50016 11.4947L3.43135 13.9483C3.37285 13.9834 3.30538 14.0013 3.23689 13.9999C3.1557 14.0016 3.07642 13.9756 3.01251 13.9262L2.82552 13.8157C2.70289 13.7255 2.64694 13.5717 2.68341 13.4252L3.76045 8.84209L0.132928 5.79159C0.0146309 5.6952 -0.0301483 5.53639 0.0207372 5.3937L0.103011 5.20949C0.146757 5.06391 0.278278 4.96085 0.432105 4.9516L5.21146 4.57582L7.04391 0.235869C7.10263 0.0917403 7.2453 -0.00195692 7.40293 8.18955e-05H7.59737C7.75359 -0.00318375 7.89475 0.0914846 7.9489 0.235869L9.8113 4.57582L14.5907 4.9516C14.7445 4.96085 14.876 5.06391 14.9198 5.20949ZM10.5817 11.8336L9.74402 8.38525L12.489 6.07896L8.89135 5.79896L7.50016 2.51268V9.98418L10.5817 11.8336Z" fill="#C9B079"/>
</svg>
